# xmcd
#
# Track frame offsets: 
#        150
#        10117
#        34578
#        50678
#        72333
#        99661
#        111247
#        125711
#        135752
#        148603
#        157906
#        176969
#        187759
#        214507
#        237234
#        256380
#        272779
#        281699
#        308281
#
# Disc length: 4430 seconds
#
# Revision: 1
# Processed by: cddbd v1.5.2PL0 Copyright (c) Steve Scherf et al.
# Submitted via: ExactAudioCopy v1.3
#
DISCID=09114c13
DTITLE=Various Artist - Crossover Eleven - Time After Time
DYEAR=2005
DGENRE=Jazz
TTITLE0=Azymuth - Opening Theme〜Fly Over the Horizon(Voo Sobre O Horiz
TTITLE0=onte)
TTITLE1=Herbie Hancock - Rockit
TTITLE2=Buckshot Lefonque - Another Day
TTITLE3=Sinske - Vocalise
TTITLE4=Wah Wah Watson - I'll Get By Without You
TTITLE5=Narration
TTITLE6=Catrin Finch - Palladio(1st Movement)
TTITLE7=Narration
TTITLE8=Weather Report - Teen Town
TTITLE9=Narration
TTITLE10=Yo-Yo Ma - Chega De Saudade
TTITLE11=Narration
TTITLE12=Terence Blanchard - Aparecida
TTITLE13=Operababes - Beyond Imagination(Fron a Midsummer Night's Drea
TTITLE13=m)
TTITLE14=Malia - Little Darling
TTITLE15=Miles Davis - Time After Time
TTITLE16=Azymuth - Ending Theme〜Outubro(October)
TTITLE17=Azymuth - Fly Over the Horizon(Voo Sobre O Horizonte)
TTITLE18=Azymuth - Outubro(October)
EXTD=YEAR: 2005
EXTT0=
EXTT1=
EXTT2=
EXTT3=
EXTT4=
EXTT5=
EXTT6=
EXTT7=
EXTT8=
EXTT9=
EXTT10=
EXTT11=
EXTT12=
EXTT13=
EXTT14=
EXTT15=
EXTT16=
EXTT17=
EXTT18=
PLAYORDER=
